<?xml version="1.0" encoding="UTF-8" standalone="no"?>
<!-- Created with Inkscape (http://www.inkscape.org/) -->

<svg
   width="60mm"
   height="40mm"
   viewBox="0 0 60 40"
   version="1.1"
   id="svg5"
   inkscape:export-filename="bitmap.svg"
   inkscape:export-xdpi="96"
   inkscape:export-ydpi="96"
   inkscape:version="1.2.2 (1:1.2.2+202305151914+b0a8486541)"
   sodipodi:docname="elipse.svg"
   xmlns:inkscape="http://www.inkscape.org/namespaces/inkscape"
   xmlns:sodipodi="http://sodipodi.sourceforge.net/DTD/sodipodi-0.dtd"
   xmlns="http://www.w3.org/2000/svg"
   xmlns:svg="http://www.w3.org/2000/svg">
  <sodipodi:namedview
     id="namedview7"
     pagecolor="#505050"
     bordercolor="#ffffff"
     borderopacity="1"
     inkscape:showpageshadow="0"
     inkscape:pageopacity="0"
     inkscape:pagecheckerboard="1"
     inkscape:deskcolor="#505050"
     inkscape:document-units="mm"
     showgrid="false"
     inkscape:zoom="1.0031004"
     inkscape:cx="106.17082"
     inkscape:cy="173.96064"
     inkscape:window-width="1366"
     inkscape:window-height="704"
     inkscape:window-x="1360"
     inkscape:window-y="27"
     inkscape:window-maximized="1"
     inkscape:current-layer="layer1" />
  <defs
     id="defs2">
    <inkscape:perspective
       sodipodi:type="inkscape:persp3d"
       inkscape:vp_x="0 : -9.9999993 : 1"
       inkscape:vp_y="0 : 999.99998 : 0"
       inkscape:vp_z="100 : -9.9999993 : 1"
       inkscape:persp3d-origin="50.000001 : -26.666666 : 1"
       id="perspective4113" />
    <clipPath
       clipPathUnits="userSpaceOnUse"
       id="clipPath6683">
      <path
         id="path6685"
         style="fill:#ff0000;fill-opacity:1;fill-rule:nonzero;stroke:none;stroke-width:0.265223"
         d="M 36.0176,-0.36856134 46.492565,6.0804757 c 0.01422,-0.037224 0.03018,-0.073829 0.0492,-0.1095032 0.244135,-0.4566648 0.884562,-0.7726253 1.908872,-0.6374647 0.876774,0.1156941 1.742353,0.106823 2.598951,0.034945 0.0162,-0.040362 0.03412,-0.080571 0.05522,-0.1203628 0.193407,-0.3712826 0.587755,-0.7190781 1.220199,-0.9484532 0.146889,-0.053275 0.296329,-0.099806 0.445055,-0.148296 C 52.565354,3.8231758 52.539908,3.4212705 52.733722,3.0537076 52.856731,2.8204848 53.06782,2.601295 53.377034,2.4234375 52.814162,2.0538754 52.636991,1.4190227 52.944754,0.89331011 c 0.021,-0.0358266 0.04619,-0.0708369 0.07172,-0.10554133 -0.685859,-0.10681292 -1.118833,-0.55641472 -1.183569,-1.07117617 -0.217979,0.0411441 -0.437084,0.0772072 -0.658156,0.10621669 -1.71785,0.2254225 -2.474976,-0.8546612 -2.017852,-1.7158725 0.134254,-0.2529497 0.376379,-0.485165 0.72663,-0.6616874 -0.628962,-0.2145107 -0.951384,-0.7321591 -0.885127,-1.2590619 -1.416704,0.00197 -2.026556,-0.9910664 -1.614933,-1.7753611 0.220211,-0.4195965 0.732474,-0.7792223 1.57013,-0.8949444 0.39614,-0.054727 0.792102,-0.1107544 1.187881,-0.1674364 0.242979,-0.1328648 0.550377,-0.2328838 0.926193,-0.2836997 0.612662,-0.082832 1.220016,-0.1838159 1.824755,-0.2954942 -0.903173,0.1254355 -1.807222,0.2478114 -2.714091,0.355496 -1.12449,0.1335252 -1.858533,-0.2989168 -2.114545,-0.8515879 -1.264788,0.017943 -1.895389,-0.9764064 -1.431918,-1.8007344 0.200273,-0.3562248 0.605083,-0.6803504 1.250932,-0.8776904 1.142492,-0.349095 2.316434,-0.617776 3.477711,-0.916357 1.517257,-0.390099 2.438103,0.428648 2.351444,1.265962 0.31585,-0.04397 0.631637,-0.08842 0.947701,-0.131241 l 1.109448,-0.135927 c 2.436081,-0.297152 3.072504,2.0681162 0.92642,2.5694417 1.396699,0.3637453 1.576405,2.0229627 -0.208943,2.5373818 0.06352,0.5697517 -0.321075,1.2175152 -1.320506,1.574028 l -0.07229,0.025969 c 0.03308,0.1591557 0.02961,0.3247312 -0.01364,0.4872928 0.175468,0.1477472 0.301138,0.3284005 0.368647,0.5246111 0.316385,-0.089413 0.634626,-0.1738003 0.957221,-0.2459545 2.496561,-0.5583778 3.292373,2.02877821 0.797861,2.59339156 -0.142908,0.0323501 -0.284937,0.0668606 -0.426419,0.10326776 0.103585,0.00697 0.207474,0.0160199 0.311692,0.0299667 1.077773,0.14423128 1.705483,0.67017397 1.88932,1.21677178 1.692613,0.092307 2.18712,1.6783379 0.894906,2.3735468 1.702109,0.045975 2.172438,2.0043317 0.09846,2.6747998 C 59.485191,6.2990206 58.995919,6.4503149 58.505073,6.5970054 58.31248,7.0015027 57.852582,7.3613423 57.078427,7.5237852 56.241778,7.699341 55.409518,7.8863676 54.584831,8.0983235 53.764464,8.3091677 53.10043,8.1754875 52.669251,7.878905 51.69715,8.0108107 50.715415,8.0946881 49.721949,8.0686851 l 21.954679,13.5166599 27.824933,-50.511741 -35.659019,-21.9539 z" />
    </clipPath>
  </defs>
  <g
     inkscape:label="Camada 1"
     inkscape:groupmode="layer"
     id="layer1">
    <ellipse
       style="opacity:0.998052;fill:none;stroke:#ffffff;stroke-width:0.213707;stroke-dasharray:none;stroke-opacity:1"
       id="path325"
       cx="67.759651"
       cy="-14.647654"
       rx="15.7641"
       ry="32.257915"
       transform="matrix(0.54610398,0.83765132,-0.88701925,0.46142919,-19.996466,-30.000124)"
       clip-path="url(#clipPath6683)" />
    <g
       sodipodi:type="inkscape:box3d"
       id="g4115"
       style="opacity:0.998052;fill:none;stroke:#ffffff;stroke-width:0.755906;stroke-dasharray:none;stroke-opacity:1"
       inkscape:perspectiveID="#perspective4113"
       inkscape:corner0="0.75811363 : 0.076149849 : 0 : 1"
       inkscape:corner7="0.23524391 : 0.046236168 : 0.25 : 1" />
  </g>
</svg>
